<svg xmlns="http://www.w3.org/2000/svg" viewBox="0 0 102.986 42.41">
    <defs>
        <style>
            .cls-1,.cls-2{fill:#57dfb7}.cls-1{opacity:.5}.cls-3{fill:#fff}
        </style>
    </defs>
    <g id="logo" transform="translate(-779 -129)">
        <path id="Path_263_2_" d="M28.4 3.4A3.267 3.267 0 0 0 25 .2a3.222 3.222 0 0 0-3.2 3.2v35a3.267 3.267 0 0 0 3.4 3.2 3.222 3.222 0 0 0 3.2-3.2z" class="cls-2" transform="translate(779 129)"/>
        <path id="Path_265_2_" d="M18.1 1.1A13.1 13.1 0 0 0 12.9 0h-.7C0 .4 0 12.4 0 12.4v26.2a3.35 3.35 0 0 0 3 3.3h.3a3.329 3.329 0 0 0 3.3-3.3V20.2a.821.821 0 0 1 .5-.5h5.6a2.9 2.9 0 1 0 0-5.8H7.2c-.3 0-.5-.3-.6-.6v-1.5a7.443 7.443 0 0 1 1.8-4.4 6.622 6.622 0 0 1 4.5-1.7 6.71 6.71 0 0 1 2.8.6 2.942 2.942 0 0 0 3.8-1.4 2.807 2.807 0 0 0-1.2-3.8c-.1.1-.1 0-.2 0z" class="cls-2" transform="translate(779 129)"/>
        <g id="Group_358_2_" transform="translate(813.226 141.31)">
            <g id="Group_356_2_" transform="translate(13.288 12.462)">
                <g id="Group_355_2_">
                    <g id="Group_354_2_">
                        <path id="Path_266_2_" d="M-1.9 3.9V0c0-.8.6-1.2 1.3-.8l.7.4C.8 0 2 .7 2.8 1.1l.7.4A.913.913 0 0 1 4 2.7a.821.821 0 0 1-.5.5l-.7.4C2.1 4 .9 4.7.1 5.1l-.7.3c-.7.4-1.3.1-1.3-.8v-.7z" class="cls-3"/>
                    </g>
                </g>
            </g>
            <g id="Group_357_2_">
                <path id="Path_267_2_" d="M5 14.8a8.884 8.884 0 0 1 14.5-6.9 10.679 10.679 0 0 0-8.8-4.6c-6.2 0-11.8 5-12.1 10.9v.6a15.3 15.3 0 0 0 27.3 9.5 13.623 13.623 0 0 1-8.8 3.2c-6.8 0-11.9-5.3-12.1-12.4v-.3z" class="cls-2"/>
                <path id="Path_268_2_" d="M22.8 14.8a8.92 8.92 0 0 1-8.9 8.9 8.929 8.929 0 0 1-5.6-2 10.679 10.679 0 0 0 8.8 4.6c6.2 0 11.8-5 12.1-10.9v-.6A15.3 15.3 0 0 0 1.9 5.3a13.623 13.623 0 0 1 8.8-3.2c6.8 0 11.9 5.3 12.1 12.4v.3z" class="cls-2"/>
            </g>
        </g>
        <path id="Path_140" d="M91.8 30.4l.1-.3-.1.4z" class="cls-2" data-name="Path 140" transform="translate(779 129)"/>
        <path id="Path_141" d="M100.8 12.5a3.307 3.307 0 0 0-4.2 2L92 30s-.1.2-.2.2-.2-.2-.2-.2L87 14.5a3.258 3.258 0 0 0-3-2.2 3.207 3.207 0 0 0-3.2 2.2L76.2 30s-.1.2-.2.2-.2-.2-.2-.2l-4.6-15.5a3.289 3.289 0 1 0-6.2 2.2l7.9 22.6a3.294 3.294 0 0 0 3.1 2.2 3.341 3.341 0 0 0 3.1-2.2l4.8-16.1 4.8 16.1a3.454 3.454 0 0 0 3.1 2.2 3.294 3.294 0 0 0 3.1-2.2l7.9-22.6a3.268 3.268 0 0 0-2-4.2z" class="cls-2" data-name="Path 141" transform="translate(779 129)"/>
    </g>
</svg>
